/* XPM */
static char * lambda_xpm[] = {
"64 64 3 1",
" 	c None",
".	c #FFFFFF",
"+	c #1059FF",
"................................................................",
"................................................................",
"................................................................",
"................................................................",
"...................+++++........................................",
"..................++++++++......................................",
".................++++++++++.....................................",
"................+++++++++++.....................................",
"...............+++++++++++++....................................",
"...............+++++++++++++....................................",
"...............+++......+++++...................................",
"..............+++........++++...................................",
"..............++.........++++...................................",
"..............++..........++++..................................",
"..............+............+++..................................",
"..............+............+++..................................",
"..............+............++++.................................",
"............................+++.................................",
"............................+++.................................",
"............................+++.................................",
"............................++++................................",
".............................+++................................",
".............................+++................................",
".............................+++................................",
".............................+++................................",
"............................+++++...............................",
"............................+++++...............................",
"...........................++++++...............................",
"...........................++++++...............................",
"..........................++++++++..............................",
"..........................++++++++..............................",
".........................+++++++++..............................",
".........................+++++++++..............................",
"........................+++++++++++.............................",
"........................+++++++.+++.............................",
".......................+++++++..+++.............................",
".......................+++++++..+++.............................",
"......................+++++++...+++.............................",
"......................+++++++....+++............................",
".....................++++++++....+++............................",
".....................+++++++.....+++............................",
".....................+++++++.....+++............................",
"....................+++++++.......+++...........................",
"....................+++++++.......+++...........................",
"...................+++++++........+++...........................",
"...................+++++++........+++...........................",
"..................+++++++.........++++..........................",
"..................+++++++..........+++..........................",
".................+++++++...........+++............+.............",
".................+++++++...........++++..........++.............",
"................++++++++...........++++..........++.............",
"................+++++++.............++++.........++.............",
"...............++++++++.............+++++.......+++.............",
"...............+++++++..............++++++.....++++.............",
"..............++++++++...............+++++++++++++..............",
"..............+++++++................+++++++++++++..............",
".............++++++++.................+++++++++++...............",
".............+++++++..................+++++++++++...............",
".............+++++++...................+++++++++................",
"............+++++++......................+++++..................",
"................................................................",
"................................................................",
"................................................................",
"................................................................"};
