<?xml version="1.0" encoding="UTF-8" standalone="no"?>
<svg
   width="800px"
   height="800px"
   viewBox="0 -12 104 104"
   version="1.1"
   id="svg1"
   sodipodi:docname="unmuted-speaker.svg"
   inkscape:version="1.3 (0e150ed6c4, 2023-07-21)"
   xmlns:inkscape="http://www.inkscape.org/namespaces/inkscape"
   xmlns:sodipodi="http://sodipodi.sourceforge.net/DTD/sodipodi-0.dtd"
   xmlns="http://www.w3.org/2000/svg"
   xmlns:svg="http://www.w3.org/2000/svg">
  <sodipodi:namedview
     id="namedview1"
     pagecolor="#ffffff"
     bordercolor="#999999"
     borderopacity="1"
     inkscape:showpageshadow="2"
     inkscape:pageopacity="0"
     inkscape:pagecheckerboard="0"
     inkscape:deskcolor="#d1d1d1"
     inkscape:zoom="0.6575"
     inkscape:cx="400"
     inkscape:cy="400"
     inkscape:window-width="1350"
     inkscape:window-height="732"
     inkscape:window-x="8"
     inkscape:window-y="28"
     inkscape:window-maximized="1"
     inkscape:current-layer="3.Multimedia" />
  <!-- Uploaded to: SVG Repo, www.svgrepo.com, Generator: SVG Repo Mixer Tools -->
  <title
     id="title1">3-multimeda-sound-loud</title>
  <desc
     id="desc1">Created with Sketch.</desc>
  <defs
     id="defs1" />
  <g
     id="3.Multimedia"
     stroke="none"
     stroke-width="1"
     fill="none"
     fill-rule="evenodd"
     stroke-linecap="round"
     stroke-linejoin="round">
    <g
       id="Multimedia-(Color)"
       transform="matrix(0.75470917,0,0,0.75470917,-363.03384,-74.618957)"
       stroke="#263238"
       stroke-width="3.5">
      <g
         id="3-multimeda-sound-loud"
         transform="translate(500,114)">
        <path
           d="M 15,53 H 2.9994225 C 1.3428872,53 0,51.652681 0,49.999981 v -23.999962 0 C 0,24.343154 1.3443507,23 2.9994225,23 H 15"
           id="Layer-1"
           fill="#ffffff" />
        <path
           d="M 41.154736,0.94167716 C 43.278417,-0.82790521 45,-0.03180345 45,2.728427 v 70.287349 c 0,2.756377 -1.720681,3.557084 -3.845264,1.78675 L 15,53.008779 V 22.735424 Z"
           id="Layer-2"
           fill="#b4daf3" />
        <path
           d="M 73,75.136972 C 88.590417,70.030777 99.85107,55.363628 99.85107,38.066413 99.85107,20.773878 88.596509,6.1099855 73.012652,1"
           id="Layer-3" />
        <path
           d="M 67,61.463396 C 77.336181,58.78875 84.970085,49.399482 84.970085,38.227221 84.970085,27.067392 77.353161,17.686591 67.034495,15"
           id="Layer-4" />
        <path
           d="m 60,48 v 0 c 0.709238,0 1.401232,-0.07384 2.068713,-0.214237 C 66.598915,46.832853 70,42.813609 70,38 70,33.115405 66.497865,29.048778 61.867565,28.174087 61.26254,28.059794 60.638253,28 60,28"
           id="Layer-5" />
      </g>
    </g>
  </g>
</svg>
